<svg class="rich-terminal" viewBox="0 0 1531 928.4" xmlns="http://www.w3.org/2000/svg">
    <!-- Generated with Rich https://www.textualize.io -->
    <style>

    @font-face {
        font-family: "Fira Code";
        src: local("FiraCode-Regular"),
                url("https://cdnjs.cloudflare.com/ajax/libs/firacode/6.2.0/woff2/FiraCode-Regular.woff2") format("woff2"),
                url("https://cdnjs.cloudflare.com/ajax/libs/firacode/6.2.0/woff/FiraCode-Regular.woff") format("woff");
        font-style: normal;
        font-weight: 400;
    }
    @font-face {
        font-family: "Fira Code";
        src: local("FiraCode-Bold"),
                url("https://cdnjs.cloudflare.com/ajax/libs/firacode/6.2.0/woff2/FiraCode-Bold.woff2") format("woff2"),
                url("https://cdnjs.cloudflare.com/ajax/libs/firacode/6.2.0/woff/FiraCode-Bold.woff") format("woff");
        font-style: bold;
        font-weight: 700;
    }

    .terminal-4085150547-matrix {
        font-family: Fira Code, monospace;
        font-size: 20px;
        line-height: 24.4px;
        font-variant-east-asian: full-width;
    }

    .terminal-4085150547-title {
        font-size: 18px;
        font-weight: bold;
        font-family: arial;
    }

    .terminal-4085150547-r1 { fill: #c5c8c6 }
.terminal-4085150547-r2 { fill: #e0e0e0 }
.terminal-4085150547-r3 { fill: #a3a3a3 }
.terminal-4085150547-r4 { fill: #e3e3e3 }
.terminal-4085150547-r5 { fill: #eaeaea;font-weight: bold }
.terminal-4085150547-r6 { fill: #e0e0e0;font-weight: bold }
.terminal-4085150547-r7 { fill: #bdbdbd;font-weight: bold }
.terminal-4085150547-r8 { fill: #9d9d9d }
.terminal-4085150547-r9 { fill: #a1a1a1 }
.terminal-4085150547-r10 { fill: #b0b0b0;font-weight: bold }
.terminal-4085150547-r11 { fill: #161616;font-weight: bold }
.terminal-4085150547-r12 { fill: #161616 }
    </style>

    <defs>
    <clipPath id="terminal-4085150547-clip-terminal">
      <rect x="0" y="0" width="1511.8" height="877.4" />
    </clipPath>
    <clipPath id="terminal-4085150547-line-0">
    <rect x="0" y="1.5" width="1512.8" height="24.65"/>
            </clipPath>
<clipPath id="terminal-4085150547-line-1">
    <rect x="0" y="25.9" width="1512.8" height="24.65"/>
            </clipPath>
<clipPath id="terminal-4085150547-line-2">
    <rect x="0" y="50.3" width="1512.8" height="24.65"/>
            </clipPath>
<clipPath id="terminal-4085150547-line-3">
    <rect x="0" y="74.7" width="1512.8" height="24.65"/>
            </clipPath>
<clipPath id="terminal-4085150547-line-4">
    <rect x="0" y="99.1" width="1512.8" height="24.65"/>
            </clipPath>
<clipPath id="terminal-4085150547-line-5">
    <rect x="0" y="123.5" width="1512.8" height="24.65"/>
            </clipPath>
<clipPath id="terminal-4085150547-line-6">
    <rect x="0" y="147.9" width="1512.8" height="24.65"/>
            </clipPath>
<clipPath id="terminal-4085150547-line-7">
    <rect x="0" y="172.3" width="1512.8" height="24.65"/>
            </clipPath>
<clipPath id="terminal-4085150547-line-8">
    <rect x="0" y="196.7" width="1512.8" height="24.65"/>
            </clipPath>
<clipPath id="terminal-4085150547-line-9">
    <rect x="0" y="221.1" width="1512.8" height="24.65"/>
            </clipPath>
<clipPath id="terminal-4085150547-line-10">
    <rect x="0" y="245.5" width="1512.8" height="24.65"/>
            </clipPath>
<clipPath id="terminal-4085150547-line-11">
    <rect x="0" y="269.9" width="1512.8" height="24.65"/>
            </clipPath>
<clipPath id="terminal-4085150547-line-12">
    <rect x="0" y="294.3" width="1512.8" height="24.65"/>
            </clipPath>
<clipPath id="terminal-4085150547-line-13">
    <rect x="0" y="318.7" width="1512.8" height="24.65"/>
            </clipPath>
<clipPath id="terminal-4085150547-line-14">
    <rect x="0" y="343.1" width="1512.8" height="24.65"/>
            </clipPath>
<clipPath id="terminal-4085150547-line-15">
    <rect x="0" y="367.5" width="1512.8" height="24.65"/>
            </clipPath>
<clipPath id="terminal-4085150547-line-16">
    <rect x="0" y="391.9" width="1512.8" height="24.65"/>
            </clipPath>
<clipPath id="terminal-4085150547-line-17">
    <rect x="0" y="416.3" width="1512.8" height="24.65"/>
            </clipPath>
<clipPath id="terminal-4085150547-line-18">
    <rect x="0" y="440.7" width="1512.8" height="24.65"/>
            </clipPath>
<clipPath id="terminal-4085150547-line-19">
    <rect x="0" y="465.1" width="1512.8" height="24.65"/>
            </clipPath>
<clipPath id="terminal-4085150547-line-20">
    <rect x="0" y="489.5" width="1512.8" height="24.65"/>
            </clipPath>
<clipPath id="terminal-4085150547-line-21">
    <rect x="0" y="513.9" width="1512.8" height="24.65"/>
            </clipPath>
<clipPath id="terminal-4085150547-line-22">
    <rect x="0" y="538.3" width="1512.8" height="24.65"/>
            </clipPath>
<clipPath id="terminal-4085150547-line-23">
    <rect x="0" y="562.7" width="1512.8" height="24.65"/>
            </clipPath>
<clipPath id="terminal-4085150547-line-24">
    <rect x="0" y="587.1" width="1512.8" height="24.65"/>
            </clipPath>
<clipPath id="terminal-4085150547-line-25">
    <rect x="0" y="611.5" width="1512.8" height="24.65"/>
            </clipPath>
<clipPath id="terminal-4085150547-line-26">
    <rect x="0" y="635.9" width="1512.8" height="24.65"/>
            </clipPath>
<clipPath id="terminal-4085150547-line-27">
    <rect x="0" y="660.3" width="1512.8" height="24.65"/>
            </clipPath>
<clipPath id="terminal-4085150547-line-28">
    <rect x="0" y="684.7" width="1512.8" height="24.65"/>
            </clipPath>
<clipPath id="terminal-4085150547-line-29">
    <rect x="0" y="709.1" width="1512.8" height="24.65"/>
            </clipPath>
<clipPath id="terminal-4085150547-line-30">
    <rect x="0" y="733.5" width="1512.8" height="24.65"/>
            </clipPath>
<clipPath id="terminal-4085150547-line-31">
    <rect x="0" y="757.9" width="1512.8" height="24.65"/>
            </clipPath>
<clipPath id="terminal-4085150547-line-32">
    <rect x="0" y="782.3" width="1512.8" height="24.65"/>
            </clipPath>
<clipPath id="terminal-4085150547-line-33">
    <rect x="0" y="806.7" width="1512.8" height="24.65"/>
            </clipPath>
<clipPath id="terminal-4085150547-line-34">
    <rect x="0" y="831.1" width="1512.8" height="24.65"/>
            </clipPath>
    </defs>

    <rect fill="#292929" stroke="rgba(255,255,255,0.35)" stroke-width="1" x="1" y="1" width="1529" height="926.4" rx="8"/><text class="terminal-4085150547-title" fill="#c5c8c6" text-anchor="middle" x="764" y="27">ssh-starter</text>
            <g transform="translate(26,22)">
            <circle cx="0" cy="0" r="7" fill="#ff5f57"/>
            <circle cx="22" cy="0" r="7" fill="#febc2e"/>
            <circle cx="44" cy="0" r="7" fill="#28c840"/>
            </g>
        
    <g transform="translate(9, 41)" clip-path="url(#terminal-4085150547-clip-terminal)">
    <rect fill="#2d2d2d" x="0" y="1.5" width="12.2" height="24.65" shape-rendering="crispEdges"/><rect fill="#2d2d2d" x="12.2" y="1.5" width="12.2" height="24.65" shape-rendering="crispEdges"/><rect fill="#2d2d2d" x="24.4" y="1.5" width="61" height="24.65" shape-rendering="crispEdges"/><rect fill="#2d2d2d" x="85.4" y="1.5" width="12.2" height="24.65" shape-rendering="crispEdges"/><rect fill="#2d2d2d" x="97.6" y="1.5" width="439.2" height="24.65" shape-rendering="crispEdges"/><rect fill="#2d2d2d" x="536.8" y="1.5" width="134.2" height="24.65" shape-rendering="crispEdges"/><rect fill="#2d2d2d" x="671" y="1.5" width="36.6" height="24.65" shape-rendering="crispEdges"/><rect fill="#2d2d2d" x="707.6" y="1.5" width="244" height="24.65" shape-rendering="crispEdges"/><rect fill="#2d2d2d" x="951.6" y="1.5" width="439.2" height="24.65" shape-rendering="crispEdges"/><rect fill="#2d2d2d" x="1390.8" y="1.5" width="12.2" height="24.65" shape-rendering="crispEdges"/><rect fill="#2d2d2d" x="1403" y="1.5" width="0" height="24.65" shape-rendering="crispEdges"/><rect fill="#2d2d2d" x="1403" y="1.5" width="97.6" height="24.65" shape-rendering="crispEdges"/><rect fill="#2d2d2d" x="1500.6" y="1.5" width="12.2" height="24.65" shape-rendering="crispEdges"/><rect fill="#2d2d2d" x="0" y="25.9" width="12.2" height="24.65" shape-rendering="crispEdges"/><rect fill="#2d2d2d" x="12.2" y="25.9" width="146.4" height="24.65" shape-rendering="crispEdges"/><rect fill="#2d2d2d" x="158.6" y="25.9" width="1342" height="24.65" shape-rendering="crispEdges"/><rect fill="#2d2d2d" x="1500.6" y="25.9" width="12.2" height="24.65" shape-rendering="crispEdges"/><rect fill="#656565" x="0" y="50.3" width="500.2" height="24.65" shape-rendering="crispEdges"/><rect fill="#1c1c1c" x="500.2" y="50.3" width="256.2" height="24.65" shape-rendering="crispEdges"/><rect fill="#1c1c1c" x="756.4" y="50.3" width="244" height="24.65" shape-rendering="crispEdges"/><rect fill="#1c1c1c" x="1000.4" y="50.3" width="268.4" height="24.65" shape-rendering="crispEdges"/><rect fill="#1c1c1c" x="1268.8" y="50.3" width="219.6" height="24.65" shape-rendering="crispEdges"/><rect fill="#1e1e1e" x="1488.4" y="50.3" width="24.4" height="24.65" shape-rendering="crispEdges"/><rect fill="#656565" x="0" y="74.7" width="48.8" height="24.65" shape-rendering="crispEdges"/><rect fill="#656565" x="48.8" y="74.7" width="451.4" height="24.65" shape-rendering="crispEdges"/><rect fill="#1c1c1c" x="500.2" y="74.7" width="109.8" height="24.65" shape-rendering="crispEdges"/><rect fill="#1c1c1c" x="610" y="74.7" width="390.4" height="24.65" shape-rendering="crispEdges"/><rect fill="#1c1c1c" x="1000.4" y="74.7" width="73.2" height="24.65" shape-rendering="crispEdges"/><rect fill="#1c1c1c" x="1073.6" y="74.7" width="414.8" height="24.65" shape-rendering="crispEdges"/><rect fill="#1e1e1e" x="1488.4" y="74.7" width="24.4" height="24.65" shape-rendering="crispEdges"/><rect fill="#272727" x="0" y="99.1" width="231.8" height="24.65" shape-rendering="crispEdges"/><rect fill="#272727" x="231.8" y="99.1" width="268.4" height="24.65" shape-rendering="crispEdges"/><rect fill="#272727" x="500.2" y="99.1" width="256.2" height="24.65" shape-rendering="crispEdges"/><rect fill="#272727" x="756.4" y="99.1" width="244" height="24.65" shape-rendering="crispEdges"/><rect fill="#272727" x="1000.4" y="99.1" width="231.8" height="24.65" shape-rendering="crispEdges"/><rect fill="#272727" x="1232.2" y="99.1" width="256.2" height="24.65" shape-rendering="crispEdges"/><rect fill="#272727" x="1488.4" y="99.1" width="24.4" height="24.65" shape-rendering="crispEdges"/><rect fill="#272727" x="0" y="123.5" width="48.8" height="24.65" shape-rendering="crispEdges"/><rect fill="#272727" x="48.8" y="123.5" width="451.4" height="24.65" shape-rendering="crispEdges"/><rect fill="#272727" x="500.2" y="123.5" width="48.8" height="24.65" shape-rendering="crispEdges"/><rect fill="#272727" x="549" y="123.5" width="451.4" height="24.65" shape-rendering="crispEdges"/><rect fill="#272727" x="1000.4" y="123.5" width="73.2" height="24.65" shape-rendering="crispEdges"/><rect fill="#272727" x="1073.6" y="123.5" width="414.8" height="24.65" shape-rendering="crispEdges"/><rect fill="#272727" x="1488.4" y="123.5" width="24.4" height="24.65" shape-rendering="crispEdges"/><rect fill="#1c1c1c" x="0" y="147.9" width="231.8" height="24.65" shape-rendering="crispEdges"/><rect fill="#1c1c1c" x="231.8" y="147.9" width="268.4" height="24.65" shape-rendering="crispEdges"/><rect fill="#1c1c1c" x="500.2" y="147.9" width="219.6" height="24.65" shape-rendering="crispEdges"/><rect fill="#1c1c1c" x="719.8" y="147.9" width="280.6" height="24.65" shape-rendering="crispEdges"/><rect fill="#1c1c1c" x="1000.4" y="147.9" width="244" height="24.65" shape-rendering="crispEdges"/><rect fill="#1c1c1c" x="1244.4" y="147.9" width="244" height="24.65" shape-rendering="crispEdges"/><rect fill="#1e1e1e" x="1488.4" y="147.9" width="24.4" height="24.65" shape-rendering="crispEdges"/><rect fill="#1c1c1c" x="0" y="172.3" width="48.8" height="24.65" shape-rendering="crispEdges"/><rect fill="#1c1c1c" x="48.8" y="172.3" width="451.4" height="24.65" shape-rendering="crispEdges"/><rect fill="#1c1c1c" x="500.2" y="172.3" width="61" height="24.65" shape-rendering="crispEdges"/><rect fill="#1c1c1c" x="561.2" y="172.3" width="439.2" height="24.65" shape-rendering="crispEdges"/><rect fill="#1c1c1c" x="1000.4" y="172.3" width="36.6" height="24.65" shape-rendering="crispEdges"/><rect fill="#1c1c1c" x="1037" y="172.3" width="451.4" height="24.65" shape-rendering="crispEdges"/><rect fill="#1e1e1e" x="1488.4" y="172.3" width="24.4" height="24.65" shape-rendering="crispEdges"/><rect fill="#272727" x="0" y="196.7" width="231.8" height="24.65" shape-rendering="crispEdges"/><rect fill="#272727" x="231.8" y="196.7" width="268.4" height="24.65" shape-rendering="crispEdges"/><rect fill="#272727" x="500.2" y="196.7" width="219.6" height="24.65" shape-rendering="crispEdges"/><rect fill="#272727" x="719.8" y="196.7" width="280.6" height="24.65" shape-rendering="crispEdges"/><rect fill="#272727" x="1000.4" y="196.7" width="244" height="24.65" shape-rendering="crispEdges"/><rect fill="#272727" x="1244.4" y="196.7" width="244" height="24.65" shape-rendering="crispEdges"/><rect fill="#272727" x="1488.4" y="196.7" width="24.4" height="24.65" shape-rendering="crispEdges"/><rect fill="#272727" x="0" y="221.1" width="61" height="24.65" shape-rendering="crispEdges"/><rect fill="#272727" x="61" y="221.1" width="439.2" height="24.65" shape-rendering="crispEdges"/><rect fill="#272727" x="500.2" y="221.1" width="48.8" height="24.65" shape-rendering="crispEdges"/><rect fill="#272727" x="549" y="221.1" width="451.4" height="24.65" shape-rendering="crispEdges"/><rect fill="#272727" x="1000.4" y="221.1" width="48.8" height="24.65" shape-rendering="crispEdges"/><rect fill="#272727" x="1049.2" y="221.1" width="439.2" height="24.65" shape-rendering="crispEdges"/><rect fill="#272727" x="1488.4" y="221.1" width="24.4" height="24.65" shape-rendering="crispEdges"/><rect fill="#1c1c1c" x="0" y="245.5" width="280.6" height="24.65" shape-rendering="crispEdges"/><rect fill="#1c1c1c" x="280.6" y="245.5" width="219.6" height="24.65" shape-rendering="crispEdges"/><rect fill="#1c1c1c" x="500.2" y="245.5" width="268.4" height="24.65" shape-rendering="crispEdges"/><rect fill="#1c1c1c" x="768.6" y="245.5" width="231.8" height="24.65" shape-rendering="crispEdges"/><rect fill="#1c1c1c" x="1000.4" y="245.5" width="292.8" height="24.65" shape-rendering="crispEdges"/><rect fill="#1c1c1c" x="1293.2" y="245.5" width="195.2" height="24.65" shape-rendering="crispEdges"/><rect fill="#1e1e1e" x="1488.4" y="245.5" width="24.4" height="24.65" shape-rendering="crispEdges"/><rect fill="#1c1c1c" x="0" y="269.9" width="97.6" height="24.65" shape-rendering="crispEdges"/><rect fill="#1c1c1c" x="97.6" y="269.9" width="402.6" height="24.65" shape-rendering="crispEdges"/><rect fill="#1c1c1c" x="500.2" y="269.9" width="48.8" height="24.65" shape-rendering="crispEdges"/><rect fill="#1c1c1c" x="549" y="269.9" width="451.4" height="24.65" shape-rendering="crispEdges"/><rect fill="#1c1c1c" x="1000.4" y="269.9" width="48.8" height="24.65" shape-rendering="crispEdges"/><rect fill="#1c1c1c" x="1049.2" y="269.9" width="439.2" height="24.65" shape-rendering="crispEdges"/><rect fill="#1e1e1e" x="1488.4" y="269.9" width="24.4" height="24.65" shape-rendering="crispEdges"/><rect fill="#272727" x="0" y="294.3" width="256.2" height="24.65" shape-rendering="crispEdges"/><rect fill="#272727" x="256.2" y="294.3" width="244" height="24.65" shape-rendering="crispEdges"/><rect fill="#272727" x="500.2" y="294.3" width="292.8" height="24.65" shape-rendering="crispEdges"/><rect fill="#272727" x="793" y="294.3" width="207.4" height="24.65" shape-rendering="crispEdges"/><rect fill="#272727" x="1000.4" y="294.3" width="244" height="24.65" shape-rendering="crispEdges"/><rect fill="#272727" x="1244.4" y="294.3" width="244" height="24.65" shape-rendering="crispEdges"/><rect fill="#272727" x="1488.4" y="294.3" width="24.4" height="24.65" shape-rendering="crispEdges"/><rect fill="#272727" x="0" y="318.7" width="109.8" height="24.65" shape-rendering="crispEdges"/><rect fill="#272727" x="109.8" y="318.7" width="390.4" height="24.65" shape-rendering="crispEdges"/><rect fill="#272727" x="500.2" y="318.7" width="134.2" height="24.65" shape-rendering="crispEdges"/><rect fill="#272727" x="634.4" y="318.7" width="366" height="24.65" shape-rendering="crispEdges"/><rect fill="#272727" x="1000.4" y="318.7" width="109.8" height="24.65" shape-rendering="crispEdges"/><rect fill="#272727" x="1110.2" y="318.7" width="378.2" height="24.65" shape-rendering="crispEdges"/><rect fill="#272727" x="1488.4" y="318.7" width="24.4" height="24.65" shape-rendering="crispEdges"/><rect fill="#1c1c1c" x="0" y="343.1" width="256.2" height="24.65" shape-rendering="crispEdges"/><rect fill="#1c1c1c" x="256.2" y="343.1" width="244" height="24.65" shape-rendering="crispEdges"/><rect fill="#1c1c1c" x="500.2" y="343.1" width="256.2" height="24.65" shape-rendering="crispEdges"/><rect fill="#1c1c1c" x="756.4" y="343.1" width="244" height="24.65" shape-rendering="crispEdges"/><rect fill="#1c1c1c" x="1000.4" y="343.1" width="268.4" height="24.65" shape-rendering="crispEdges"/><rect fill="#1c1c1c" x="1268.8" y="343.1" width="219.6" height="24.65" shape-rendering="crispEdges"/><rect fill="#1e1e1e" x="1488.4" y="343.1" width="24.4" height="24.65" shape-rendering="crispEdges"/><rect fill="#1c1c1c" x="0" y="367.5" width="97.6" height="24.65" shape-rendering="crispEdges"/><rect fill="#1c1c1c" x="97.6" y="367.5" width="402.6" height="24.65" shape-rendering="crispEdges"/><rect fill="#1c1c1c" x="500.2" y="367.5" width="61" height="24.65" shape-rendering="crispEdges"/><rect fill="#1c1c1c" x="561.2" y="367.5" width="439.2" height="24.65" shape-rendering="crispEdges"/><rect fill="#1c1c1c" x="1000.4" y="367.5" width="61" height="24.65" shape-rendering="crispEdges"/><rect fill="#1c1c1c" x="1061.4" y="367.5" width="427" height="24.65" shape-rendering="crispEdges"/><rect fill="#1e1e1e" x="1488.4" y="367.5" width="24.4" height="24.65" shape-rendering="crispEdges"/><rect fill="#272727" x="0" y="391.9" width="280.6" height="24.65" shape-rendering="crispEdges"/><rect fill="#272727" x="280.6" y="391.9" width="219.6" height="24.65" shape-rendering="crispEdges"/><rect fill="#272727" x="500.2" y="391.9" width="231.8" height="24.65" shape-rendering="crispEdges"/><rect fill="#272727" x="732" y="391.9" width="268.4" height="24.65" shape-rendering="crispEdges"/><rect fill="#272727" x="1000.4" y="391.9" width="207.4" height="24.65" shape-rendering="crispEdges"/><rect fill="#272727" x="1207.8" y="391.9" width="280.6" height="24.65" shape-rendering="crispEdges"/><rect fill="#272727" x="1488.4" y="391.9" width="24.4" height="24.65" shape-rendering="crispEdges"/><rect fill="#272727" x="0" y="416.3" width="109.8" height="24.65" shape-rendering="crispEdges"/><rect fill="#272727" x="109.8" y="416.3" width="390.4" height="24.65" shape-rendering="crispEdges"/><rect fill="#272727" x="500.2" y="416.3" width="73.2" height="24.65" shape-rendering="crispEdges"/><rect fill="#272727" x="573.4" y="416.3" width="427" height="24.65" shape-rendering="crispEdges"/><rect fill="#272727" x="1000.4" y="416.3" width="61" height="24.65" shape-rendering="crispEdges"/><rect fill="#272727" x="1061.4" y="416.3" width="427" height="24.65" shape-rendering="crispEdges"/><rect fill="#272727" x="1488.4" y="416.3" width="24.4" height="24.65" shape-rendering="crispEdges"/><rect fill="#1c1c1c" x="0" y="440.7" width="231.8" height="24.65" shape-rendering="crispEdges"/><rect fill="#1c1c1c" x="231.8" y="440.7" width="268.4" height="24.65" shape-rendering="crispEdges"/><rect fill="#1c1c1c" x="500.2" y="440.7" width="292.8" height="24.65" shape-rendering="crispEdges"/><rect fill="#1c1c1c" x="793" y="440.7" width="207.4" height="24.65" shape-rendering="crispEdges"/><rect fill="#1c1c1c" x="1000.4" y="440.7" width="268.4" height="24.65" shape-rendering="crispEdges"/><rect fill="#1c1c1c" x="1268.8" y="440.7" width="219.6" height="24.65" shape-rendering="crispEdges"/><rect fill="#1e1e1e" x="1488.4" y="440.7" width="24.4" height="24.65" shape-rendering="crispEdges"/><rect fill="#1c1c1c" x="0" y="465.1" width="48.8" height="24.65" shape-rendering="crispEdges"/><rect fill="#1c1c1c" x="48.8" y="465.1" width="451.4" height="24.65" shape-rendering="crispEdges"/><rect fill="#1c1c1c" x="500.2" y="465.1" width="73.2" height="24.65" shape-rendering="crispEdges"/><rect fill="#1c1c1c" x="573.4" y="465.1" width="427" height="24.65" shape-rendering="crispEdges"/><rect fill="#1c1c1c" x="1000.4" y="465.1" width="48.8" height="24.65" shape-rendering="crispEdges"/><rect fill="#1c1c1c" x="1049.2" y="465.1" width="439.2" height="24.65" shape-rendering="crispEdges"/><rect fill="#1e1e1e" x="1488.4" y="465.1" width="24.4" height="24.65" shape-rendering="crispEdges"/><rect fill="#272727" x="0" y="489.5" width="268.4" height="24.65" shape-rendering="crispEdges"/><rect fill="#272727" x="268.4" y="489.5" width="231.8" height="24.65" shape-rendering="crispEdges"/><rect fill="#272727" x="500.2" y="489.5" width="231.8" height="24.65" shape-rendering="crispEdges"/><rect fill="#272727" x="732" y="489.5" width="268.4" height="24.65" shape-rendering="crispEdges"/><rect fill="#272727" x="1000.4" y="489.5" width="219.6" height="24.65" shape-rendering="crispEdges"/><rect fill="#272727" x="1220" y="489.5" width="268.4" height="24.65" shape-rendering="crispEdges"/><rect fill="#272727" x="1488.4" y="489.5" width="24.4" height="24.65" shape-rendering="crispEdges"/><rect fill="#272727" x="0" y="513.9" width="97.6" height="24.65" shape-rendering="crispEdges"/><rect fill="#272727" x="97.6" y="513.9" width="402.6" height="24.65" shape-rendering="crispEdges"/><rect fill="#272727" x="500.2" y="513.9" width="109.8" height="24.65" shape-rendering="crispEdges"/><rect fill="#272727" x="610" y="513.9" width="390.4" height="24.65" shape-rendering="crispEdges"/><rect fill="#272727" x="1000.4" y="513.9" width="36.6" height="24.65" shape-rendering="crispEdges"/><rect fill="#272727" x="1037" y="513.9" width="451.4" height="24.65" shape-rendering="crispEdges"/><rect fill="#272727" x="1488.4" y="513.9" width="24.4" height="24.65" shape-rendering="crispEdges"/><rect fill="#1c1c1c" x="0" y="538.3" width="256.2" height="24.65" shape-rendering="crispEdges"/><rect fill="#1c1c1c" x="256.2" y="538.3" width="244" height="24.65" shape-rendering="crispEdges"/><rect fill="#1c1c1c" x="500.2" y="538.3" width="500.2" height="24.65" shape-rendering="crispEdges"/><rect fill="#1c1c1c" x="1000.4" y="538.3" width="488" height="24.65" shape-rendering="crispEdges"/><rect fill="#1e1e1e" x="1488.4" y="538.3" width="24.4" height="24.65" shape-rendering="crispEdges"/><rect fill="#1c1c1c" x="0" y="562.7" width="61" height="24.65" shape-rendering="crispEdges"/><rect fill="#1c1c1c" x="61" y="562.7" width="439.2" height="24.65" shape-rendering="crispEdges"/><rect fill="#1c1c1c" x="500.2" y="562.7" width="500.2" height="24.65" shape-rendering="crispEdges"/><rect fill="#1c1c1c" x="1000.4" y="562.7" width="488" height="24.65" shape-rendering="crispEdges"/><rect fill="#1e1e1e" x="1488.4" y="562.7" width="24.4" height="24.65" shape-rendering="crispEdges"/><rect fill="#272727" x="0" y="587.1" width="1512.8" height="24.65" shape-rendering="crispEdges"/><rect fill="#272727" x="0" y="611.5" width="1512.8" height="24.65" shape-rendering="crispEdges"/><rect fill="#272727" x="0" y="635.9" width="1512.8" height="24.65" shape-rendering="crispEdges"/><rect fill="#272727" x="0" y="660.3" width="1512.8" height="24.65" shape-rendering="crispEdges"/><rect fill="#272727" x="0" y="684.7" width="1512.8" height="24.65" shape-rendering="crispEdges"/><rect fill="#272727" x="0" y="709.1" width="1512.8" height="24.65" shape-rendering="crispEdges"/><rect fill="#272727" x="0" y="733.5" width="1512.8" height="24.65" shape-rendering="crispEdges"/><rect fill="#272727" x="0" y="757.9" width="1512.8" height="24.65" shape-rendering="crispEdges"/><rect fill="#272727" x="0" y="782.3" width="1512.8" height="24.65" shape-rendering="crispEdges"/><rect fill="#272727" x="0" y="806.7" width="1512.8" height="24.65" shape-rendering="crispEdges"/><rect fill="#272727" x="0" y="831.1" width="1512.8" height="24.65" shape-rendering="crispEdges"/><rect fill="#161616" x="0" y="855.5" width="48.8" height="24.65" shape-rendering="crispEdges"/><rect fill="#b0b0b0" x="48.8" y="855.5" width="61" height="24.65" shape-rendering="crispEdges"/><rect fill="#161616" x="109.8" y="855.5" width="48.8" height="24.65" shape-rendering="crispEdges"/><rect fill="#b0b0b0" x="158.6" y="855.5" width="97.6" height="24.65" shape-rendering="crispEdges"/><rect fill="#161616" x="256.2" y="855.5" width="48.8" height="24.65" shape-rendering="crispEdges"/><rect fill="#b0b0b0" x="305" y="855.5" width="61" height="24.65" shape-rendering="crispEdges"/><rect fill="#161616" x="366" y="855.5" width="48.8" height="24.65" shape-rendering="crispEdges"/><rect fill="#b0b0b0" x="414.8" y="855.5" width="73.2" height="24.65" shape-rendering="crispEdges"/><rect fill="#161616" x="488" y="855.5" width="61" height="24.65" shape-rendering="crispEdges"/><rect fill="#b0b0b0" x="549" y="855.5" width="61" height="24.65" shape-rendering="crispEdges"/><rect fill="#b0b0b0" x="610" y="855.5" width="12.2" height="24.65" shape-rendering="crispEdges"/><rect fill="#b0b0b0" x="622.2" y="855.5" width="854" height="24.65" shape-rendering="crispEdges"/><rect fill="#b0b0b0" x="1476.2" y="855.5" width="24.4" height="24.65" shape-rendering="crispEdges"/><rect fill="#b0b0b0" x="1500.6" y="855.5" width="12.2" height="24.65" shape-rendering="crispEdges"/>
    <g class="terminal-4085150547-matrix">
    <text class="terminal-4085150547-r2" x="12.2" y="20" textLength="12.2" clip-path="url(#terminal-4085150547-line-0)">⭘</text><text class="terminal-4085150547-r2" x="536.8" y="20" textLength="134.2" clip-path="url(#terminal-4085150547-line-0)">ssh-starter</text><text class="terminal-4085150547-r3" x="671" y="20" textLength="36.6" clip-path="url(#terminal-4085150547-line-0)">&#160;—&#160;</text><text class="terminal-4085150547-r3" x="707.6" y="20" textLength="244" clip-path="url(#terminal-4085150547-line-0)">SSH&#160;profile&#160;launcher</text><text class="terminal-4085150547-r1" x="1512.8" y="20" textLength="12.2" clip-path="url(#terminal-4085150547-line-0)">
</text><text class="terminal-4085150547-r4" x="12.2" y="44.4" textLength="146.4" clip-path="url(#terminal-4085150547-line-1)">Filter:&#160;none</text><text class="terminal-4085150547-r1" x="1512.8" y="44.4" textLength="12.2" clip-path="url(#terminal-4085150547-line-1)">
</text><text class="terminal-4085150547-r5" x="0" y="68.8" textLength="500.2" clip-path="url(#terminal-4085150547-line-2)">aurora-lab-19-root&#160;&#160;&#160;&#160;&#160;&#160;&#160;&#160;&#160;&#160;&#160;&#160;&#160;&#160;&#160;&#160;&#160;&#160;&#160;&#160;&#160;&#160;&#160;</text><text class="terminal-4085150547-r6" x="500.2" y="68.8" textLength="256.2" clip-path="url(#terminal-4085150547-line-2)">aurora-worker-13-root</text><text class="terminal-4085150547-r6" x="1000.4" y="68.8" textLength="268.4" clip-path="url(#terminal-4085150547-line-2)">cedar-backup-03-deploy</text><text class="terminal-4085150547-r1" x="1512.8" y="68.8" textLength="12.2" clip-path="url(#terminal-4085150547-line-2)">
</text><text class="terminal-4085150547-r7" x="0" y="93.2" textLength="48.8" clip-path="url(#terminal-4085150547-line-3)">root</text><text class="terminal-4085150547-r8" x="500.2" y="93.2" textLength="109.8" clip-path="url(#terminal-4085150547-line-3)">root&#160;(+1)</text><text class="terminal-4085150547-r8" x="1000.4" y="93.2" textLength="73.2" clip-path="url(#terminal-4085150547-line-3)">deploy</text><text class="terminal-4085150547-r1" x="1512.8" y="93.2" textLength="12.2" clip-path="url(#terminal-4085150547-line-3)">
</text><text class="terminal-4085150547-r6" x="0" y="117.6" textLength="231.8" clip-path="url(#terminal-4085150547-line-4)">cedar-media-31-root</text><text class="terminal-4085150547-r6" x="500.2" y="117.6" textLength="256.2" clip-path="url(#terminal-4085150547-line-4)">cedar-media-31-root-2</text><text class="terminal-4085150547-r6" x="1000.4" y="117.6" textLength="231.8" clip-path="url(#terminal-4085150547-line-4)">ember-lab-28-deploy</text><text class="terminal-4085150547-r1" x="1512.8" y="117.6" textLength="12.2" clip-path="url(#terminal-4085150547-line-4)">
</text><text class="terminal-4085150547-r9" x="0" y="142" textLength="48.8" clip-path="url(#terminal-4085150547-line-5)">root</text><text class="terminal-4085150547-r9" x="500.2" y="142" textLength="48.8" clip-path="url(#terminal-4085150547-line-5)">root</text><text class="terminal-4085150547-r9" x="1000.4" y="142" textLength="73.2" clip-path="url(#terminal-4085150547-line-5)">deploy</text><text class="terminal-4085150547-r1" x="1512.8" y="142" textLength="12.2" clip-path="url(#terminal-4085150547-line-5)">
</text><text class="terminal-4085150547-r6" x="0" y="166.4" textLength="231.8" clip-path="url(#terminal-4085150547-line-6)">falcon-core-22-root</text><text class="terminal-4085150547-r6" x="500.2" y="166.4" textLength="219.6" clip-path="url(#terminal-4085150547-line-6)">falcon-db-35-admin</text><text class="terminal-4085150547-r6" x="1000.4" y="166.4" textLength="244" clip-path="url(#terminal-4085150547-line-6)">harbor-backup-34-ops</text><text class="terminal-4085150547-r1" x="1512.8" y="166.4" textLength="12.2" clip-path="url(#terminal-4085150547-line-6)">
</text><text class="terminal-4085150547-r8" x="0" y="190.8" textLength="48.8" clip-path="url(#terminal-4085150547-line-7)">root</text><text class="terminal-4085150547-r8" x="500.2" y="190.8" textLength="61" clip-path="url(#terminal-4085150547-line-7)">admin</text><text class="terminal-4085150547-r8" x="1000.4" y="190.8" textLength="36.6" clip-path="url(#terminal-4085150547-line-7)">ops</text><text class="terminal-4085150547-r1" x="1512.8" y="190.8" textLength="12.2" clip-path="url(#terminal-4085150547-line-7)">
</text><text class="terminal-4085150547-r6" x="0" y="215.2" textLength="231.8" clip-path="url(#terminal-4085150547-line-8)">harbor-lab-29-admin</text><text class="terminal-4085150547-r6" x="500.2" y="215.2" textLength="219.6" clip-path="url(#terminal-4085150547-line-8)">harbor-lab-29-root</text><text class="terminal-4085150547-r6" x="1000.4" y="215.2" textLength="244" clip-path="url(#terminal-4085150547-line-8)">juniper-edge-16-root</text><text class="terminal-4085150547-r1" x="1512.8" y="215.2" textLength="12.2" clip-path="url(#terminal-4085150547-line-8)">
</text><text class="terminal-4085150547-r9" x="0" y="239.6" textLength="61" clip-path="url(#terminal-4085150547-line-9)">admin</text><text class="terminal-4085150547-r9" x="500.2" y="239.6" textLength="48.8" clip-path="url(#terminal-4085150547-line-9)">root</text><text class="terminal-4085150547-r9" x="1000.4" y="239.6" textLength="48.8" clip-path="url(#terminal-4085150547-line-9)">root</text><text class="terminal-4085150547-r1" x="1512.8" y="239.6" textLength="12.2" clip-path="url(#terminal-4085150547-line-9)">
</text><text class="terminal-4085150547-r6" x="0" y="264" textLength="280.6" clip-path="url(#terminal-4085150547-line-10)">juniper-lab-36-operator</text><text class="terminal-4085150547-r6" x="500.2" y="264" textLength="268.4" clip-path="url(#terminal-4085150547-line-10)">kestrel-backup-07-root</text><text class="terminal-4085150547-r6" x="1000.4" y="264" textLength="292.8" clip-path="url(#terminal-4085150547-line-10)">kestrel-backup-07-root-2</text><text class="terminal-4085150547-r1" x="1512.8" y="264" textLength="12.2" clip-path="url(#terminal-4085150547-line-10)">
</text><text class="terminal-4085150547-r8" x="0" y="288.4" textLength="97.6" clip-path="url(#terminal-4085150547-line-11)">operator</text><text class="terminal-4085150547-r8" x="500.2" y="288.4" textLength="48.8" clip-path="url(#terminal-4085150547-line-11)">root</text><text class="terminal-4085150547-r8" x="1000.4" y="288.4" textLength="48.8" clip-path="url(#terminal-4085150547-line-11)">root</text><text class="terminal-4085150547-r1" x="1512.8" y="288.4" textLength="12.2" clip-path="url(#terminal-4085150547-line-11)">
</text><text class="terminal-4085150547-r6" x="0" y="312.8" textLength="256.2" clip-path="url(#terminal-4085150547-line-12)">kestrel-cache-01-root</text><text class="terminal-4085150547-r6" x="500.2" y="312.8" textLength="292.8" clip-path="url(#terminal-4085150547-line-12)">kestrel-worker-38-deploy</text><text class="terminal-4085150547-r6" x="1000.4" y="312.8" textLength="244" clip-path="url(#terminal-4085150547-line-12)">lumen-backup-26-root</text><text class="terminal-4085150547-r1" x="1512.8" y="312.8" textLength="12.2" clip-path="url(#terminal-4085150547-line-12)">
</text><text class="terminal-4085150547-r9" x="0" y="337.2" textLength="109.8" clip-path="url(#terminal-4085150547-line-13)">root&#160;(+1)</text><text class="terminal-4085150547-r9" x="500.2" y="337.2" textLength="134.2" clip-path="url(#terminal-4085150547-line-13)">deploy&#160;(+1)</text><text class="terminal-4085150547-r9" x="1000.4" y="337.2" textLength="109.8" clip-path="url(#terminal-4085150547-line-13)">root&#160;(+1)</text><text class="terminal-4085150547-r1" x="1512.8" y="337.2" textLength="12.2" clip-path="url(#terminal-4085150547-line-13)">
</text><text class="terminal-4085150547-r6" x="0" y="361.6" textLength="256.2" clip-path="url(#terminal-4085150547-line-14)">lumen-lab-21-operator</text><text class="terminal-4085150547-r6" x="500.2" y="361.6" textLength="256.2" clip-path="url(#terminal-4085150547-line-14)">lumen-worker-15-admin</text><text class="terminal-4085150547-r6" x="1000.4" y="361.6" textLength="268.4" clip-path="url(#terminal-4085150547-line-14)">meridian-edge-05-admin</text><text class="terminal-4085150547-r1" x="1512.8" y="361.6" textLength="12.2" clip-path="url(#terminal-4085150547-line-14)">
</text><text class="terminal-4085150547-r8" x="0" y="386" textLength="97.6" clip-path="url(#terminal-4085150547-line-15)">operator</text><text class="terminal-4085150547-r8" x="500.2" y="386" textLength="61" clip-path="url(#terminal-4085150547-line-15)">admin</text><text class="terminal-4085150547-r8" x="1000.4" y="386" textLength="61" clip-path="url(#terminal-4085150547-line-15)">admin</text><text class="terminal-4085150547-r1" x="1512.8" y="386" textLength="12.2" clip-path="url(#terminal-4085150547-line-15)">
</text><text class="terminal-4085150547-r6" x="0" y="410.4" textLength="280.6" clip-path="url(#terminal-4085150547-line-16)">meridian-worker-23-root</text><text class="terminal-4085150547-r6" x="500.2" y="410.4" textLength="231.8" clip-path="url(#terminal-4085150547-line-16)">nova-core-33-deploy</text><text class="terminal-4085150547-r6" x="1000.4" y="410.4" textLength="207.4" clip-path="url(#terminal-4085150547-line-16)">onyx-lab-20-admin</text><text class="terminal-4085150547-r1" x="1512.8" y="410.4" textLength="12.2" clip-path="url(#terminal-4085150547-line-16)">
</text><text class="terminal-4085150547-r9" x="0" y="434.8" textLength="109.8" clip-path="url(#terminal-4085150547-line-17)">root&#160;(+2)</text><text class="terminal-4085150547-r9" x="500.2" y="434.8" textLength="73.2" clip-path="url(#terminal-4085150547-line-17)">deploy</text><text class="terminal-4085150547-r9" x="1000.4" y="434.8" textLength="61" clip-path="url(#terminal-4085150547-line-17)">admin</text><text class="terminal-4085150547-r1" x="1512.8" y="434.8" textLength="12.2" clip-path="url(#terminal-4085150547-line-17)">
</text><text class="terminal-4085150547-r6" x="0" y="459.2" textLength="231.8" clip-path="url(#terminal-4085150547-line-18)">prairie-lab-37-root</text><text class="terminal-4085150547-r6" x="500.2" y="459.2" textLength="292.8" clip-path="url(#terminal-4085150547-line-18)">prairie-worker-17-deploy</text><text class="terminal-4085150547-r6" x="1000.4" y="459.2" textLength="268.4" clip-path="url(#terminal-4085150547-line-18)">prairie-worker-17-root</text><text class="terminal-4085150547-r1" x="1512.8" y="459.2" textLength="12.2" clip-path="url(#terminal-4085150547-line-18)">
</text><text class="terminal-4085150547-r8" x="0" y="483.6" textLength="48.8" clip-path="url(#terminal-4085150547-line-19)">root</text><text class="terminal-4085150547-r8" x="500.2" y="483.6" textLength="73.2" clip-path="url(#terminal-4085150547-line-19)">deploy</text><text class="terminal-4085150547-r8" x="1000.4" y="483.6" textLength="48.8" clip-path="url(#terminal-4085150547-line-19)">root</text><text class="terminal-4085150547-r1" x="1512.8" y="483.6" textLength="12.2" clip-path="url(#terminal-4085150547-line-19)">
</text><text class="terminal-4085150547-r6" x="0" y="508" textLength="268.4" clip-path="url(#terminal-4085150547-line-20)">raven-core-06-operator</text><text class="terminal-4085150547-r6" x="500.2" y="508" textLength="231.8" clip-path="url(#terminal-4085150547-line-20)">solstice-db-09-root</text><text class="terminal-4085150547-r6" x="1000.4" y="508" textLength="219.6" clip-path="url(#terminal-4085150547-line-20)">willow-core-04-ops</text><text class="terminal-4085150547-r1" x="1512.8" y="508" textLength="12.2" clip-path="url(#terminal-4085150547-line-20)">
</text><text class="terminal-4085150547-r9" x="0" y="532.4" textLength="97.6" clip-path="url(#terminal-4085150547-line-21)">operator</text><text class="terminal-4085150547-r9" x="500.2" y="532.4" textLength="109.8" clip-path="url(#terminal-4085150547-line-21)">root&#160;(+3)</text><text class="terminal-4085150547-r9" x="1000.4" y="532.4" textLength="36.6" clip-path="url(#terminal-4085150547-line-21)">ops</text><text class="terminal-4085150547-r1" x="1512.8" y="532.4" textLength="12.2" clip-path="url(#terminal-4085150547-line-21)">
</text><text class="terminal-4085150547-r6" x="0" y="556.8" textLength="256.2" clip-path="url(#terminal-4085150547-line-22)">willow-media-40-admin</text><text class="terminal-4085150547-r1" x="1512.8" y="556.8" textLength="12.2" clip-path="url(#terminal-4085150547-line-22)">
</text><text class="terminal-4085150547-r8" x="0" y="581.2" textLength="61" clip-path="url(#terminal-4085150547-line-23)">admin</text><text class="terminal-4085150547-r1" x="1512.8" y="581.2" textLength="12.2" clip-path="url(#terminal-4085150547-line-23)">
</text><text class="terminal-4085150547-r1" x="1512.8" y="605.6" textLength="12.2" clip-path="url(#terminal-4085150547-line-24)">
</text><text class="terminal-4085150547-r1" x="1512.8" y="630" textLength="12.2" clip-path="url(#terminal-4085150547-line-25)">
</text><text class="terminal-4085150547-r1" x="1512.8" y="654.4" textLength="12.2" clip-path="url(#terminal-4085150547-line-26)">
</text><text class="terminal-4085150547-r1" x="1512.8" y="678.8" textLength="12.2" clip-path="url(#terminal-4085150547-line-27)">
</text><text class="terminal-4085150547-r1" x="1512.8" y="703.2" textLength="12.2" clip-path="url(#terminal-4085150547-line-28)">
</text><text class="terminal-4085150547-r1" x="1512.8" y="727.6" textLength="12.2" clip-path="url(#terminal-4085150547-line-29)">
</text><text class="terminal-4085150547-r1" x="1512.8" y="752" textLength="12.2" clip-path="url(#terminal-4085150547-line-30)">
</text><text class="terminal-4085150547-r1" x="1512.8" y="776.4" textLength="12.2" clip-path="url(#terminal-4085150547-line-31)">
</text><text class="terminal-4085150547-r1" x="1512.8" y="800.8" textLength="12.2" clip-path="url(#terminal-4085150547-line-32)">
</text><text class="terminal-4085150547-r1" x="1512.8" y="825.2" textLength="12.2" clip-path="url(#terminal-4085150547-line-33)">
</text><text class="terminal-4085150547-r1" x="1512.8" y="849.6" textLength="12.2" clip-path="url(#terminal-4085150547-line-34)">
</text><text class="terminal-4085150547-r10" x="0" y="874" textLength="48.8" clip-path="url(#terminal-4085150547-line-35)">&#160;F1&#160;</text><text class="terminal-4085150547-r11" x="48.8" y="874" textLength="61" clip-path="url(#terminal-4085150547-line-35)">Help&#160;</text><text class="terminal-4085150547-r10" x="109.8" y="874" textLength="48.8" clip-path="url(#terminal-4085150547-line-35)">&#160;F2&#160;</text><text class="terminal-4085150547-r11" x="158.6" y="874" textLength="97.6" clip-path="url(#terminal-4085150547-line-35)">Options&#160;</text><text class="terminal-4085150547-r10" x="256.2" y="874" textLength="48.8" clip-path="url(#terminal-4085150547-line-35)">&#160;F3&#160;</text><text class="terminal-4085150547-r11" x="305" y="874" textLength="61" clip-path="url(#terminal-4085150547-line-35)">Info&#160;</text><text class="terminal-4085150547-r10" x="366" y="874" textLength="48.8" clip-path="url(#terminal-4085150547-line-35)">&#160;F4&#160;</text><text class="terminal-4085150547-r11" x="414.8" y="874" textLength="73.2" clip-path="url(#terminal-4085150547-line-35)">Users&#160;</text><text class="terminal-4085150547-r10" x="488" y="874" textLength="61" clip-path="url(#terminal-4085150547-line-35)">&#160;F10&#160;</text><text class="terminal-4085150547-r11" x="549" y="874" textLength="61" clip-path="url(#terminal-4085150547-line-35)">Exit&#160;</text><text class="terminal-4085150547-r12" x="622.2" y="874" textLength="854" clip-path="url(#terminal-4085150547-line-35)">Enter&#160;connect&#160;|&#160;Esc&#160;Esc&#160;exit&#160;|&#160;Servers&#160;31&#160;total/31&#160;shown&#160;|&#160;Profiles&#160;40</text>
    </g>
    </g>
</svg>
